<?xml version="1.0" encoding="utf-8"?>
<!-- Generator: Adobe Illustrator 21.0.2, SVG Export Plug-In . SVG Version: 6.00 Build 0)  -->
<svg version="1.1" id="Capa_1" xmlns="http://www.w3.org/2000/svg" xmlns:xlink="http://www.w3.org/1999/xlink" x="0px" y="0px"
	 viewBox="0 0 483 796.5" style="enable-background:new 0 0 483 796.5;" xml:space="preserve">
<style type="text/css">
	.st0{fill:#DEF9FF;}
</style>
<title>Recurso 1</title>
<path class="st0" d="M0,0v796.5h483V0H0z M320.9,398.1c0.8,8.6,3.6,31.9,2.5,33.9c-1.1,2-8.1,19.8-15.4,20.9c0,0-5.3,3.9-7.2,2.7
	c-1.9-1.2,0.4-3.9,0.4-3.9c-0.9,0.1-1.7-0.1-2.4-0.7c-0.9-0.9,7.1-8.6,7.1-8.6s-4,1.7-5.3,0.1c-1.3-1.6,10.2-7.7,12.2-12.2
	c2-4.5-0.7-7.4-0.7-7.4l-3.3,1.6c0,0-3.2,10.5-5.5,10.6c-2.3,0.1-3.7,0.1-1.9-12.2c0,0-2.7-9.2-0.5-13.3c2.1-4.1,4.5-5.2,4.5-9.6
	s-6.5-27.3-8.6-39.9c-2.1-12.6,1.9-37.2-0.3-42s-4.7-16.1-4.8-24.2c-0.1-8.1-2.3-18.9-4.3-21.6c-2-2.7,0.9,15.4-3.6,27
	c-4.4,11.6-1.4,31.7,0.8,40.3c2.1,8.6,9.2,57.2,9.8,74.9c0.7,17.7-4.4,83.3-3.7,92.7c0.7,9.4,5.2,22.7,5.2,49.9
	c0,27.1-4.5,29.4-8.3,40.7c-3.8,11.3-7.7,40.7-7.3,46.2c0,0,2.3,3.9,2.4,6.1c0.1,2.3,0,5.1,0.8,7.8c0.8,2.8,8.9,22.5,6.5,25.3
	s-16.5,3.1-21.4,2.7c0,0-1.2,2.3-6.1,1.5s-4.3-18.1-2.8-27.1c1.5-9-2.8-11.3-1.5-17s3.9-8.2,4.1-10.8c0.3-2.5,2.3-31.9-1.2-46.2
	s-2.9-35.9,0.4-45.5s-1.6-14.9-5.2-26.5c-3.6-11.6-5.5-39.6-5.5-52s-4.1-21-6.1-28.2c-2-7.2-1.7-17.5-1.7-17.5l-1.6-0.7l-1.6,0.7
	c0,0,0.3,10.4-1.7,17.5c-2,7.2-6.1,15.9-6.1,28.2s-1.9,40.4-5.5,52c-3.6,11.6-8.5,16.9-5.2,26.5s3.9,31.3,0.4,45.5
	c-3.5,14.2-1.5,43.6-1.2,46.2c0.3,2.5,2.8,5.1,4.1,10.8s-2.9,8-1.5,17c1.5,9,2.1,26.3-2.8,27.1c-4.9,0.8-6.1-1.5-6.1-1.5
	c-4.9,0.4-19,0.1-21.4-2.7c-2.4-2.8,5.7-22.5,6.5-25.3c0.8-2.8,0.7-5.6,0.8-7.8c0.1-2.3,2.4-6.1,2.4-6.1c0.4-5.5-3.5-34.9-7.3-46.2
	c-3.9-11.3-8.3-13.6-8.3-40.7c0-27.1,4.5-40.4,5.2-49.9c0.7-9.4-4.4-75-3.7-92.7c0.7-17.7,7.7-66.2,9.8-74.9
	c2.1-8.6,5.2-28.7,0.8-40.3s-1.6-29.7-3.6-27s-4.1,13.4-4.3,21.6c-0.1,8.1-2.7,19.4-4.8,24.2c-2.1,4.8,1.9,29.4-0.3,42
	c-2.1,12.6-8.7,35.5-8.7,39.9c0,4.4,2.4,5.5,4.5,9.6c2.1,4.1-0.5,13.3-0.5,13.3c1.9,12.4,0.4,12.4-1.9,12.2
	c-2.3-0.1-5.5-10.6-5.5-10.6l-3.3-1.6c0,0-2.7,2.9-0.7,7.4c2,4.5,13.6,10.6,12.2,12.2c-1.3,1.6-5.3-0.1-5.3-0.1s8,7.7,7.1,8.6
	c-0.7,0.6-1.5,0.8-2.4,0.7c0,0,2.3,2.7,0.4,3.9c-1.9,1.2-7.2-2.7-7.2-2.7c-7.3-1.1-14.4-18.9-15.4-20.9c-1.1-2,1.7-25.3,2.5-33.9
	s-4.5-71.8-2.8-75.7s3.3-12.9,2.3-18.9s-2.3-36.3,1.1-44.3c3.3-8-0.7-22.7,8.2-37.2c8.9-14.5,29.3-14,29.3-14s19.2-6.3,21.8-10.1
	s1.3-20.6,1.3-20.6c-5.2-3.9-5.7-15.2-5.7-15.2s-0.4,2-2.4,0.7s-2.7-14.8-2.1-16c0.5-1.2,2.8-0.8,2.8-0.8s-3.2-17.5,2.3-26.6
	c5.5-9.1,18.4-10.4,23.4-10.4s18,1.3,23.4,10.4c5.4,9,2.3,26.6,2.3,26.6s2.3-0.4,2.8,0.8c0.5,1.2-0.1,14.6-2.1,16s-2.4-0.7-2.4-0.7
	s-0.5,11.3-5.7,15.2c0,0-1.3,16.8,1.3,20.6c2.7,3.9,21.8,10.1,21.8,10.1s20.4-0.5,29.3,14c8.9,14.5,4.9,29.3,8.2,37.2
	c3.3,8,2.1,38.3,1.1,44.3c-1.1,6,0.5,15,2.3,18.9C325.4,326.3,320.1,389.5,320.9,398.1z"/>
</svg>
