<?xml version="1.0" encoding="iso-8859-1"?>
<!-- Generator: Adobe Illustrator 16.0.0, SVG Export Plug-In . SVG Version: 6.00 Build 0)  -->
<!DOCTYPE svg PUBLIC "-//W3C//DTD SVG 1.1//EN" "http://www.w3.org/Graphics/SVG/1.1/DTD/svg11.dtd">
<svg xmlns="http://www.w3.org/2000/svg" xmlns:xlink="http://www.w3.org/1999/xlink" version="1.1" id="Capa_1" x="0px" y="0px" width="512px" height="512px" viewBox="0 0 478.665 478.665" style="enable-background:new 0 0 478.665 478.665;" xml:space="preserve">
<g>
	<g id="Layer_2_28_">
		<g>
			<path d="M192.013,174.157c-12.632,0-22.878,10.243-22.878,22.859c0,12.603,10.246,22.86,22.878,22.86     c12.604,0,22.845-10.226,22.845-22.86C214.858,184.4,204.617,174.157,192.013,174.157z M196.703,211.582     c-6.476,0-11.718-5.256-11.718-11.747c0-6.46,5.243-11.715,11.718-11.715c6.471,0,11.696,5.255,11.696,11.715     C208.399,206.326,203.174,211.582,196.703,211.582z" fill="#28e8bd"/>
			<path d="M286.652,174.157c-12.604,0-22.844,10.243-22.844,22.859c0,12.635,10.24,22.86,22.844,22.86     c12.633,0,22.879-10.258,22.879-22.86C309.531,184.4,299.285,174.157,286.652,174.157z M281.963,211.582     c-6.471,0-11.695-5.256-11.695-11.747c0-6.46,5.225-11.715,11.695-11.715c6.477,0,11.718,5.255,11.718,11.715     C293.681,206.326,288.438,211.582,281.963,211.582z" fill="#28e8bd"/>
			<path d="M330.002,338.358c-7.047,0-28.18,0.055-32.846,0.066c-0.088-0.002-0.173-0.013-0.261-0.013     c-0.099,0-0.192,0.013-0.289,0.015c-0.242,0-0.384,0.002-0.384,0.002l-0.033,0.02c-3.419,0.229-6.387,2.086-8.135,4.812     l-0.02,0.012c0,0-0.115,0.199-0.324,0.555c-0.02,0.033-0.039,0.064-0.057,0.098c-3.846,6.553-35.941,60.621-48.322,60.979     c-12.381-0.358-44.477-54.427-48.322-60.979c-0.018-0.033-0.039-0.064-0.057-0.098c-0.209-0.355-0.324-0.555-0.324-0.555     l-0.02-0.012c-1.747-2.727-4.714-4.584-8.134-4.812l-0.034-0.02c0,0-0.141,0-0.383-0.002c-0.097-0.002-0.191-0.015-0.289-0.015     c-0.088,0-0.173,0.011-0.261,0.013c-4.666-0.012-25.798-0.066-32.846-0.066c-31.806,0-74.397,28.963-74.397,65.875     s0,59.06,0,59.06h164.928h0.14h0.14h164.926c0,0,0-22.147,0-59.06S361.808,338.358,330.002,338.358z" fill="#28e8bd"/>
			<path d="M478.363,272.241c-0.005-0.087-0.016-0.167-0.03-0.234c-11.267-49.341,14.408-110.604-25.5-159.22     c-35.897-43.727-66.238,2.089-75.176-0.598c-9.506-22-23.769-42.078-41.693-58.29c-27.473-24.845-61.786-38.527-96.622-38.527     c-0.003,0-0.006,0-0.009,0s-0.006,0-0.009,0c-34.835,0-69.149,13.683-96.622,38.527c-17.925,16.211-32.187,36.29-41.693,58.29     c-8.938,2.688-39.279-43.129-75.176,0.598c-39.908,48.616-14.233,109.878-25.5,159.219c-0.016,0.069-0.025,0.148-0.03,0.235     C0.112,273.06,0,273.909,0,274.787c0,5.885,4.556,10.696,10.331,11.125c0.001,0,0.001,0,0.001,0c0.009,0,0.017,0,0.025,0.001     c0.268,0.02,0.536,0.041,0.809,0.041c0.016,0,0.031-0.002,0.047-0.002c60.234,3.355,85.866-25.255,92.845-45.862     c0.255,0.021,0.505,0.048,0.761,0.063c12.774,22.527,31.501,43.003,53.274,58.139c25.348,17.621,53.335,27.135,81.099,27.656     v0.011c0.047-0.001,0.093-0.004,0.14-0.005c0.047,0.001,0.093,0.004,0.14,0.005v-0.011c27.762-0.521,55.75-10.035,81.099-27.656     c21.772-15.136,40.5-35.611,53.273-58.139c0.256-0.016,0.506-0.045,0.762-0.063c6.979,20.607,32.609,49.218,92.845,45.862     c0.016,0,0.031,0.002,0.047,0.002c0.272,0,0.541-0.021,0.809-0.041c0.009,0,0.018,0,0.025-0.001c0,0,0.001,0,0.002,0     c5.775-0.429,10.331-5.24,10.331-11.125C478.666,273.91,478.555,273.06,478.363,272.241z M370.521,219.809     c-0.354,0-0.88-0.042-1.438-0.086l-7.278-0.551l-3.103,6.019c-19.683,38.176-65.258,79.219-119.37,80.339     c-54.112-1.12-99.688-42.163-119.37-80.339l-3.103-6.02l-7.278,0.551c-0.558,0.044-1.084,0.086-1.438,0.086     c-15.638,0-23.567-10.413-23.567-30.948c0-6.951,1.391-29.991,19.281-34.619c0,0,70.11,1.535,124.155-14.718     c11.32-3.404,15.32-2.071,24.816,0.611c53.845,15.205,121.978,14.107,121.978,14.107c17.892,4.627,19.281,27.667,19.281,34.619     C394.089,209.397,386.16,219.809,370.521,219.809z" fill="#28e8bd"/>
		</g>
	</g>
</g>
<g>
</g>
<g>
</g>
<g>
</g>
<g>
</g>
<g>
</g>
<g>
</g>
<g>
</g>
<g>
</g>
<g>
</g>
<g>
</g>
<g>
</g>
<g>
</g>
<g>
</g>
<g>
</g>
<g>
</g>
</svg>
