<?xml version="1.0" encoding="utf-8"?>
<!-- Generator: Adobe Illustrator 22.0.1, SVG Export Plug-In . SVG Version: 6.00 Build 0)  -->
<svg version="1.1" id="Capa_1" xmlns="http://www.w3.org/2000/svg" xmlns:xlink="http://www.w3.org/1999/xlink" x="0px" y="0px"
	 viewBox="0 0 420 420" style="enable-background:new 0 0 420 420;" xml:space="preserve">
<style type="text/css">
	.st0{fill:#ACD8FE;}
	.st1{fill:none;stroke:#4B5E64;stroke-width:2;stroke-linecap:round;stroke-linejoin:round;stroke-miterlimit:10;}
	.st2{fill:#FEF9D4;}
	.st3{fill:#4B5E64;}
	.st4{fill:none;stroke:#4B5E64;stroke-width:3;stroke-linecap:round;stroke-linejoin:round;stroke-miterlimit:10;}
	.st5{fill:#3D596D;}
	.st6{fill:#FFFFFF;}
	.st7{fill:#FDFDFD;}
	.st8{fill:#F5516A;}
</style>
<path class="st0" d="M337,87.7c0,0,26.4-1.8,26.4-26.4c0,0,1.8,24.6,22.8,26.4c0,0-19.3-1.8-22.8,22.8
	C363.4,110.5,361.6,87.7,337,87.7z"/>
<path class="st8" d="M73.6,83.9c0,0,10.9-0.7,10.9-10.9c0,0,0.7,10.2,9.5,10.9c0,0-8-0.7-9.5,9.5C84.5,93.4,83.8,83.9,73.6,83.9z"/>
<path class="st1" d="M341.8,89.9c0,0,26.4-1.8,26.4-26.4c0,0,1.8,24.6,22.8,26.4c0,0-19.3-1.8-22.8,22.8
	C368.2,112.7,366.4,89.9,341.8,89.9z"/>
<g>
	<g>
		<circle class="st2" cx="67" cy="279.5" r="11.1"/>
	</g>
	<path class="st3" d="M64,266.5c6.1,0,11,4.9,11,11s-4.9,11-11,11s-11-4.9-11-11S57.9,266.5,64,266.5 M64,264.3
		c-7.3,0-13.2,5.9-13.2,13.2s5.9,13.2,13.2,13.2s13.2-5.9,13.2-13.2S71.3,264.3,64,264.3L64,264.3z"/>
	<path class="st3" d="M64,253.3c-0.6,0-1.1-0.5-1.1-1.1v-7.1c0-0.6,0.5-1.1,1.1-1.1c0.6,0,1.1,0.5,1.1,1.1v7.1
		C65.1,252.8,64.6,253.3,64,253.3z"/>
	<path class="st3" d="M77.2,266.4c-0.3,0-0.6-0.1-0.8-0.3c-0.4-0.4-0.4-1.1,0-1.5l5.1-5.1c0.4-0.4,1.1-0.4,1.5,0
		c0.4,0.4,0.4,1.1,0,1.5l-5.1,5.1C77.7,266.3,77.4,266.4,77.2,266.4z"/>
	<path class="st3" d="M96.4,279.6h-7.1c-0.6,0-1.1-0.5-1.1-1.1c0-0.6,0.5-1.1,1.1-1.1h7.1c0.6,0,1.1,0.5,1.1,1.1
		C97.5,279.1,97,279.6,96.4,279.6z"/>
	<path class="st3" d="M82.2,297.8c-0.3,0-0.6-0.1-0.8-0.3l-5.1-5.1c-0.4-0.4-0.4-1.1,0-1.5c0.4-0.4,1.1-0.4,1.5,0L83,296
		c0.4,0.4,0.4,1.1,0,1.5C82.8,297.7,82.5,297.8,82.2,297.8z"/>
	<path class="st3" d="M64,311c-0.6,0-1.1-0.5-1.1-1.1v-7.1c0-0.6,0.5-1.1,1.1-1.1c0.6,0,1.1,0.5,1.1,1.1v7.1
		C65.1,310.5,64.6,311,64,311z"/>
	<path class="st3" d="M46.8,296.8c-0.2,0-0.5-0.1-0.7-0.2c-0.5-0.4-0.5-1.1-0.2-1.5L50,290c0.4-0.5,1.1-0.5,1.5-0.2
		c0.5,0.4,0.5,1.1,0.2,1.5l-4.1,5.1C47.4,296.7,47.1,296.8,46.8,296.8z"/>
	<path class="st3" d="M38.7,278.6h-7.1c-0.6,0-1.1-0.5-1.1-1.1s0.5-1.1,1.1-1.1h7.1c0.6,0,1.1,0.5,1.1,1.1S39.3,278.6,38.7,278.6z"
		/>
	<path class="st3" d="M51.8,266.4c-0.3,0-0.6-0.1-0.8-0.3l-5.1-5.1c-0.4-0.4-0.4-1.1,0-1.5c0.4-0.4,1.1-0.4,1.5,0l5.1,5.1
		c0.4,0.4,0.4,1.1,0,1.5C52.4,266.3,52.1,266.4,51.8,266.4z"/>
</g>
<g>
	<line class="st1" x1="176.8" y1="333.9" x2="176.8" y2="341.6"/>
	<line class="st1" x1="192.1" y1="334.8" x2="187" y2="339.9"/>
	<line class="st1" x1="185.3" y1="351" x2="193" y2="351"/>
	<line class="st1" x1="187" y1="359.6" x2="191.3" y2="365.5"/>
	<line class="st1" x1="176.8" y1="358.7" x2="176.8" y2="365.5"/>
	<line class="st1" x1="166.5" y1="360.4" x2="161.4" y2="365.5"/>
	<line class="st1" x1="168.2" y1="350.2" x2="161.4" y2="350.2"/>
	<line class="st1" x1="167.4" y1="339.1" x2="162.3" y2="334.8"/>
</g>
<g>
	<path class="st5" d="M353.6,160.2l-38.9,50.3c0,0-8.1-20.5-45-22.9c-36.9-2.4-41.7,11.6-41.7,11.6s-18.4-14.9-57.8-9
		c-40.3,6-36.3,46-36.3,46s-13.8,3-60-79l43.3-13l-9.2,6h44l5-6l11,5.4l35.4-0.6l4.2-4.8l8.7,5.5l40.6-0.5l6.7-4l9,5l30.5-1l4.8-3.5
		l4.2,5.5l19.9,1L353.6,160.2z"/>
	<g>
		<path class="st5" d="M292.1,59c-33.5-15.8-64.9,2.1-73.5,7.8c-3.3-2.5-10.1-7.2-19.6-10.2c-12.5-4-32.2-6.2-55.4,6.6
			c-18.9,10.4-38.8,28.9-59.2,55.1c-15.1,19.4-24.9,36.1-25,36.2l-3,5.1l-0.3,0.1l0.1,0.3l-0.3,0.5l0.4,0l0.3,1.8
			c0.3,1.6,6.9,39.6,30.9,78.3c14.2,22.8,31.5,41,51.5,54c25,16.3,54.2,24.6,86.7,24.6h0.8l0.7-0.3c1.2-0.6,30.2-14,61.7-40.2
			c29.2-24.3,66-64.6,75.1-118.4l0.5-2.7C364.3,157.5,323.6,73.8,292.1,59z M146.8,69.2c40-21.9,68,3.4,69.1,4.5l2.1,2l2.4-1.8
			c0.3-0.3,34-25,68.6-8.6c25.3,12,57.2,71.7,65.6,88.1c-21.3,1.2-51.2-25.8-66.1-39.2c-2-1.8-3.8-3.4-5.3-4.8
			c-4.4-3.9-9.6-5.2-14.5-5.2c-9.9,0-19,5.2-20.7,6.2c-2.3,1-27,11-48.3-0.5c-25.1-13.5-43.8,3.9-45.5,5.5c-25.6,23.6-68,33-85,35.9
			C80,134.6,111.7,88.4,146.8,69.2z M349.2,160.2c-5.4,7.5-18.9,25.7-36.3,44.3c-20.6,21.9-50.8,48.7-78.1,51.7
			c-28.6,3.1-52.5,4.6-77.8-7.5c-28.3-13.5-54.3-42.5-81.9-91c6.1-1.2,14-2.9,22.8-5.5c26.2-7.6,46.9-18.2,61.2-31.4l0.2-0.1
			c0.2-0.2,15.7-15.9,37.2-4.3c25.3,13.7,53.5,1.1,54.6,0.6l0.4-0.2c0.2-0.1,17.2-10.5,27.2-1.8c1.5,1.3,3.2,2.9,5.2,4.7
			C299.3,133.4,326.1,157.6,349.2,160.2z M284.4,273.1c-28.2,23.5-55,36.9-59.6,39.1c-30.8-0.1-58.4-8-82-23.4
			c-19.1-12.5-35.7-29.9-49.3-51.7c-19.9-31.9-27.7-64.1-29.6-73.3l5.2-2.4c28.3,49.8,55.3,79.6,84.9,93.7
			c26.9,12.9,52.9,11.3,81.6,8.2c52.2-5.7,111-86.9,120.7-100.7c0,0,0,0,0.1,0C346.6,212.3,312,250,284.4,273.1z"/>
		<g>
			<path class="st8" d="M135.4,239.6c0,0-9.9-39,31-49c41-10,63,8,63,8s13-19,59-3c0,0,41,7,45,68c0,0,12,84-36,98
				c-49.8,14.5-66-44.2-94-67C166.7,264.8,135.4,239.6,135.4,239.6z"/>
			<path class="st5" d="M282.3,367.4c-27.1,0-43.5-22.7-58.3-43.1c-7.6-10.5-14.7-20.4-22.9-27c-36.2-29.5-67.7-54.7-68-55l-0.9-0.7
				l-0.3-1.1c-0.2-0.7-4.5-18.4,4.8-33.9c5.8-9.6,15.5-16.1,28.8-19.4c33-8.1,50.2,1.4,56.6,6.4c7-7,28.3-17.9,67.4-4.3
				c0.5,0.2,11.2,3.2,22.4,15c10.2,10.8,22.8,26.4,24.9,58.9c0.3,2,2.9,22.3,0,44.6c-4.1,31.2-17.4,51-38.5,57.2
				C292.6,366.7,287.3,367.4,282.3,367.4z M138.5,237.7c5.6,4.5,34.4,27.6,67,54.2c8.8,7.2,16.3,17.5,24.1,28.3
				c17.7,24.4,34.4,47.5,66.7,38c44.6-13,33.6-93.3,33.5-94.1l0-0.3c-1.1-16.7-5.9-36.4-22.8-54.4c-10.1-10.8-19.8-13.5-19.9-13.5
				c-43-15-55.8,4.5-56,4.8l-2.7,3.6l-2.9-3.4c-0.6-0.6-20.4-16.1-58.5-6.8c-11.4,2.8-19.7,8.2-24.5,16.2
				C136.1,221.2,137.8,233.9,138.5,237.7z"/>
		</g>
		<path class="st5" d="M197.4,152.6h-30c-5.1,0-9-1.5-11.8-4.3c-3.7-3.9-3.8-8.8-3.8-9.7V118l1.4-0.9c1-0.6,2.3-1.5,3.7-2.5
			c7.4-5.2,19.8-13.9,31.4-7.4c6.9,3.9,19.6,7.1,19.7,7.2l2.3,0.6v21.6C210.4,152.4,197.5,152.6,197.4,152.6z M157.8,121.4l0,17.4
			c0,0,0,3.2,2.1,5.4c1.6,1.6,4.1,2.5,7.4,2.5h30c1.1,0,7-0.6,7-10v-17c-4.2-1.2-13.2-3.9-18.9-7.1c-8.3-4.7-18.4,2.4-25,7
			C159.5,120.2,158.6,120.8,157.8,121.4z"/>
		<path class="st5" d="M253.4,152.6h-33c-6.4,0-11-1.7-13.7-5c-2.7-3.3-2.5-7-2.3-8.2v-25.3l3.4,0.5c7.4,1.1,30.3,0.2,36-2.9
			c11.5-6.2,15.7-6.5,16.7-6.5l2.9,0.1v32.2C263.4,152.5,253.5,152.6,253.4,152.6z M210.4,120.9V140l-0.1,0.3c0,0-0.3,2,1,3.6
			c1.5,1.8,4.6,2.7,9,2.7h33c1.4-0.1,4-2.1,4-9v-25.6c-2.1,0.7-5.6,2.2-10.7,5C239.6,120.8,219.7,121.4,210.4,120.9z"/>
		<path class="st5" d="M301.7,152.6h-30.3c-5.3,0-9.3-1.4-11.7-4.1c-2.4-2.8-2.4-5.9-2.3-6.8l0.5-34.8l2.1-0.6
			c1.9-0.6,11.8-3.3,16.4,0.8c8.2,7.3,31.6,27.1,31.9,27.3l1.1,0.9v7.4c0,6.7-4.8,9.4-7.4,9.9L301.7,152.6z M263.3,142.3
			c0,0-0.1,1.3,0.9,2.3c1.2,1.3,3.7,2,7.1,2H301c0.7-0.2,2.4-1.1,2.4-4V138c-4.7-4-23.7-20.1-30.9-26.5c-1.1-1-5-0.8-8.6-0.1
			L263.3,142.3C263.3,142.3,263.3,142.3,263.3,142.3z"/>
		<path class="st5" d="M343.7,154.1h-29.8c-7.6,0-10.5-6.3-11-9.6l0-0.4v-14.2l5.1,5.1c2.7,2.7,16.1,9.6,23.9,13.4L343.7,154.1z
			 M308.9,143.9c0.2,1,1.2,4.3,5,4.3h4.2c-3.2-1.7-6.5-3.5-9.2-5.2V143.9z"/>
		<path class="st5" d="M142.9,153.1h-30c-3.2,0-8-2.1-8-8h6c0,1.7,1.1,2,2,2h30c3.6,0,6.3-0.8,7.7-2.4c1.4-1.6,1.3-3.6,1.3-3.6
			l0-0.3v-21.7h6v21.5c0.1,1,0.1,4.8-2.8,8.1C152.4,151.6,148.3,153.1,142.9,153.1z"/>
		<path class="st5" d="M218.9,196c0,0,29,24,34,49c0,0-2.8-33-22.6-49H218.9z"/>
		<path class="st5" d="M161.3,87.7c0,0,1.3,2,3.7,4.4c2.4,2.5,6,5.4,9.9,7.8c3.9,2.4,8,4.3,11.1,5.5c1.6,0.7,2.6,1.1,3.6,1.5
			c0.9,0.3,0.8,1.1,0.8,1.1l0.9,0.1c1.8,0.6,2.8,1.8,2.2,3.5c-0.6,1.8-2.5,2.7-4.2,2.1c-0.2-0.1-0.4-0.1-0.5-0.2
			c0,0-0.5-0.3-1.5-0.8c-0.9-0.5-2.3-1.2-3.8-2.2c-3.1-1.8-7.1-4.7-10.7-7.9c-3.6-3.2-6.7-6.9-8.7-9.8
			C162.2,89.8,161.3,87.7,161.3,87.7z"/>
		<path class="st5" d="M278.5,89.9c0,0-1.4,2-4,4.6c-2.6,2.5-6.4,5.6-10.6,8c-4.1,2.4-8.5,4.4-11.9,5.5c-1.6,0.6-2.8,1.1-3.8,1.4
			c-1,0.3-0.9,1.1-0.9,1.1l-1,0.1c-1.9,0.6-3,1.8-2.4,3.6c0.6,1.9,2.5,2.9,4.4,2.3c0.2-0.1,0.4-0.1,0.6-0.2c0,0,0.6-0.3,1.6-0.8
			c1-0.5,2.4-1.2,4.1-2.2c3.3-1.9,7.6-4.7,11.4-8c3.8-3.3,7.2-7.1,9.3-10.1C277.4,92.1,278.5,89.9,278.5,89.9z"/>
		<path class="st5" d="M312.9,117.8c0,0-1.2,1.1-3.2,2.3c-2.1,1.2-5,2.6-8.3,3.3c-1.6,0.4-3.3,0.6-4.9,0.6c-0.8,0.1-1.6,0-2.3,0
			c-0.7,0-1.4-0.1-2.1-0.2c-1.3-0.1-2.4-0.4-3.1-0.6c-0.7-0.2-1.2-0.3-1.2-0.3c-1.7-0.4-2.7-2.1-2.3-3.8c0.4-1.7,2.1-2.7,3.8-2.3
			c0.2,0.1,0.5,0.1,0.7,0.3l0.2,0.1c0,0,0.3,0.2,0.8,0.4c0.5,0.3,1.3,0.7,2.3,1.1c0.5,0.2,1,0.4,1.6,0.6c0.6,0.2,1.2,0.4,1.9,0.5
			c1.3,0.3,2.8,0.5,4.3,0.5c3,0.1,6-0.4,8.2-1.1C311.5,118.6,312.9,117.8,312.9,117.8z"/>
		<path class="st5" d="M126.3,120.8c0,0,1.2,1.1,3.2,2.3c2.1,1.2,5,2.6,8.3,3.3c1.6,0.4,3.3,0.6,4.9,0.6c0.8,0.1,1.6,0,2.3,0
			c0.7,0,1.4-0.1,2.1-0.2c1.3-0.1,2.4-0.4,3.1-0.6c0.7-0.2,1.2-0.3,1.2-0.3c1.7-0.4,2.7-2.1,2.3-3.8c-0.4-1.7-2.1-2.7-3.8-2.3
			c-0.2,0.1-0.5,0.1-0.7,0.3l-0.2,0.1c0,0-0.3,0.2-0.8,0.4c-0.5,0.3-1.3,0.7-2.3,1.1c-0.5,0.2-1,0.4-1.6,0.6
			c-0.6,0.2-1.2,0.4-1.9,0.5c-1.3,0.3-2.8,0.5-4.3,0.5c-3,0.1-6-0.4-8.2-1.1C127.7,121.6,126.3,120.8,126.3,120.8z"/>
	</g>
</g>
</svg>
