<?xml version="1.0" encoding="utf-8"?>
<!-- Generator: Adobe Illustrator 21.0.2, SVG Export Plug-In . SVG Version: 6.00 Build 0)  -->
<svg version="1.1" id="Capa_4" xmlns="http://www.w3.org/2000/svg" xmlns:xlink="http://www.w3.org/1999/xlink" x="0px" y="0px"
	 viewBox="0 0 671.1 251.2" style="enable-background:new 0 0 671.1 251.2;" xml:space="preserve">
<style type="text/css">
	.st0{fill:#FFFFFF;}
</style>
<path class="st0" d="M330.2,42.1c0,4.8-1.7,9-5.2,12.5c-3.5,3.5-7.7,5.2-12.5,5.2h-8.9v48.7h-8.9V2.3h17.7c4.8,0,9,1.7,12.5,5.2
	c3.5,3.5,5.2,7.7,5.2,12.5V42.1z M321.3,42.1V20c0-2.5-0.9-4.6-2.6-6.3c-1.7-1.7-3.8-2.6-6.3-2.6h-8.9V51h8.9c2.5,0,4.6-0.9,6.3-2.6
	C320.5,46.7,321.3,44.6,321.3,42.1z"/>
<path class="st0" d="M378,108.6h-8.9L364.7,82H347l-4.4,26.6h-8.9L351.4,2.3h8.9L378,108.6z M363.3,73.2l-7.4-44.3l-7.4,44.3H363.3z
	"/>
<path class="st0" d="M425,90.9c0,4.8-1.7,9-5.2,12.5c-3.5,3.5-7.7,5.2-12.5,5.2c-4.8,0-9-1.7-12.5-5.2c-3.5-3.5-5.2-7.6-5.2-12.5
	V2.3h8.9v88.6c0,2.5,0.9,4.6,2.6,6.3c1.7,1.7,3.8,2.6,6.3,2.6c2.5,0,4.6-0.9,6.3-2.6c1.7-1.7,2.6-3.8,2.6-6.3V2.3h8.9V90.9z"/>
<path class="st0" d="M474.6,108.6h-35.5V2.3h8.9v97.5h26.6V108.6z"/>
<path class="st0" d="M529.7,108.6h-8.9L516.4,82h-17.7l-4.4,26.6h-8.9L503.1,2.3h8.9L529.7,108.6z M514.9,73.2l-7.4-44.3l-7.4,44.3
	H514.9z"/>
<path class="st0" d="M330.2,214.2c0,4.8-1.7,9-5.2,12.5c-3.5,3.5-7.7,5.2-12.5,5.2h-17.7V125.6h17.7c4.8,0,9,1.7,12.5,5.2
	c3.5,3.5,5.2,7.7,5.2,12.5V214.2z M321.3,214.2v-70.9c0-2.5-0.9-4.6-2.6-6.3c-1.7-1.7-3.8-2.6-6.3-2.6h-8.9v88.6h8.9
	c2.5,0,4.6-0.9,6.3-2.6C320.5,218.8,321.3,216.7,321.3,214.2z"/>
<path class="st0" d="M379.6,231.9h-8.9l-8.9-48.7h-8.9v48.7h-8.9V125.6h17.7c4.8,0,9,1.7,12.5,5.2c3.5,3.5,5.2,7.7,5.2,12.5v22.2
	c-0.1,4-0.9,7.4-2.4,10.2c-1.5,2.8-3.6,5.1-6.5,6.8L379.6,231.9z M370.8,165.5v-22.2c0-2.5-0.9-4.6-2.6-6.3
	c-1.7-1.7-3.8-2.6-6.3-2.6h-8.9v39.9h8.9c2.5,0,4.6-0.9,6.3-2.6C369.9,170.1,370.8,168,370.8,165.5z"/>
<path class="st0" d="M427.4,214.2c0,4.8-1.7,9-5.2,12.5c-3.5,3.5-7.7,5.2-12.5,5.2c-4.8,0-9-1.7-12.5-5.2c-3.5-3.5-5.2-7.6-5.2-12.5
	v-70.9c0-4.8,1.7-9,5.2-12.5c3.5-3.5,7.6-5.2,12.5-5.2c4.8,0,9,1.7,12.5,5.2c3.5,3.5,5.2,7.7,5.2,12.5V214.2z M418.5,214.2v-70.9
	c0-2.5-0.9-4.6-2.6-6.3c-1.7-1.7-3.8-2.6-6.3-2.6c-2.5,0-4.6,0.9-6.3,2.6c-1.7,1.7-2.6,3.8-2.6,6.3v70.9c0,2.5,0.9,4.6,2.6,6.3
	c1.7,1.7,3.8,2.6,6.3,2.6c2.5,0,4.6-0.9,6.3-2.6C417.6,218.8,418.5,216.7,418.5,214.2z"/>
<path class="st0" d="M476.8,231.9h-17.7c-4.8,0-9-1.7-12.5-5.2c-3.5-3.5-5.2-7.6-5.2-12.5v-70.9c0-4.8,1.7-9,5.2-12.5
	c3.5-3.5,7.6-5.2,12.5-5.2c4.8,0,9,1.7,12.5,5.2c3.5,3.5,5.2,7.7,5.2,12.5v8.9h-8.9v-8.9c0-2.5-0.9-4.6-2.6-6.3
	c-1.7-1.7-3.8-2.6-6.3-2.6c-2.5,0-4.6,0.9-6.3,2.6c-1.7,1.7-2.6,3.8-2.6,6.3v70.9c0,2.5,0.9,4.6,2.6,6.3c1.7,1.7,3.8,2.6,6.3,2.6
	h8.9v-39.9h-8.9v-8.9h17.7V231.9z"/>
<path class="st0" d="M526.2,214.2c0,4.8-1.7,9-5.2,12.5c-3.5,3.5-7.7,5.2-12.5,5.2c-4.8,0-9-1.7-12.5-5.2c-3.5-3.5-5.2-7.6-5.2-12.5
	v-88.6h8.9v88.6c0,2.5,0.9,4.6,2.6,6.3c1.7,1.7,3.8,2.6,6.3,2.6c2.5,0,4.6-0.9,6.3-2.6c1.7-1.7,2.6-3.8,2.6-6.3v-88.6h8.9V214.2z"/>
<path class="st0" d="M575.7,231.9h-35.5V125.6h35.5v8.9h-26.6v39.9h19.5v8.9h-19.5v39.9h26.6V231.9z"/>
<path class="st0" d="M626.8,134.5h-13.3v97.5h-8.9v-97.5h-13.3v-8.9h35.5V134.5z"/>
<path class="st0" d="M671.1,134.5h-13.3v97.5h-8.9v-97.5h-13.3v-8.9h35.5V134.5z"/>
<g>
	<path class="st0" d="M95.7,85.5c0,0,0.4-4.9,0-10.6S92,64.3,99.8,60.2s15.9,4.9,12.6,17.9c0,0,56.7-48.9,80.4-56.7
		c0,0,12.2-28.1-66.5-20s-94.2,47.3-93,57.9s2,16.7,27.7,21.2C86.7,85.1,95.7,85.5,95.7,85.5z"/>
	<path class="st0" d="M84.3,96.1c0,0-3.3,48.9,5.3,70.2s27.3,57.5,35.1,64.4c0,0-28.6,9.8-60.8-18.8S7.6,141.8,0.7,105.5
		S42.3,70.8,84.3,96.1z"/>
	<path class="st0" d="M201.4,21.1c0,0-10.6,9-24.9,11.8c0,0-8.2,4.9-21.6,19.6c-13.5,14.7-44.9,36.7-45.7,67.7c0,0,1.6,9.2,6.1,22.3
		c4.5,13.1,5.3,23.3,4.9,38c-0.4,14.7-0.4,18.8,4.5,25.7s14.3,15.1,15.1,20s-0.4,13.5,3.3,15.9s37.5,24,64.9-9.8
		S257.6,115,252.3,77.6S250.3-1,201.4,21.1z"/>
</g>
</svg>
