<?xml version="1.0" encoding="utf-8"?>
<!-- Generator: Adobe Illustrator 22.0.1, SVG Export Plug-In . SVG Version: 6.00 Build 0)  -->
<svg version="1.1" id="Capa_1" xmlns="http://www.w3.org/2000/svg" xmlns:xlink="http://www.w3.org/1999/xlink" x="0px" y="0px"
	 viewBox="0 0 420 420" style="enable-background:new 0 0 420 420;" xml:space="preserve">
<style type="text/css">
	.st0{fill:#ACD8FE;}
	.st1{fill:none;stroke:#4B5E64;stroke-width:2;stroke-linecap:round;stroke-linejoin:round;stroke-miterlimit:10;}
	.st2{fill:#FEF9D4;}
	.st3{fill:#4B5E64;}
	.st4{fill:none;stroke:#4B5E64;stroke-width:3;stroke-linecap:round;stroke-linejoin:round;stroke-miterlimit:10;}
	.st5{fill:#3D596D;}
	.st6{fill:#FFFFFF;}
	.st7{fill:#FDFDFD;}
	.st8{fill:#F5516A;}
</style>
<g>
	<path class="st2" d="M108,350.7c0,0,26.4-1.8,26.4-26.4c0,0,1.8,24.6,22.8,26.4c0,0-19.3-1.8-22.8,22.8
		C134.4,373.5,132.6,350.7,108,350.7z"/>
</g>
<g>
	<path class="st0" d="M78,260.9c0,0,15.6-1,15.6-15.6c0,0,1,14.6,13.6,15.6c0,0-11.5-1-13.6,13.6C93.6,274.5,92.6,260.9,78,260.9z"
		/>
</g>
<path class="st1" d="M112.8,345.9c0,0,26.4-1.8,26.4-26.4c0,0,1.8,24.6,22.8,26.4c0,0-19.3-1.8-22.8,22.8
	C139.2,368.7,137.4,345.9,112.8,345.9z"/>
<g>
	<g>
		<circle class="st0" cx="113.6" cy="86.9" r="13.1"/>
	</g>
	<path class="st3" d="M110,71.6c7.1,0,12.9,5.8,12.9,12.9s-5.8,12.9-12.9,12.9s-12.9-5.8-12.9-12.9S102.9,71.6,110,71.6 M110,69
		c-8.6,0-15.5,7-15.5,15.5s7,15.5,15.5,15.5s15.5-7,15.5-15.5S118.6,69,110,69L110,69z"/>
	<path class="st3" d="M110,55.9c-0.7,0-1.3-0.6-1.3-1.3v-8.4c0-0.7,0.6-1.3,1.3-1.3s1.3,0.6,1.3,1.3v8.4
		C111.3,55.4,110.7,55.9,110,55.9z"/>
	<path class="st3" d="M125.5,71.5c-0.3,0-0.7-0.1-0.9-0.4c-0.5-0.5-0.5-1.3,0-1.8l6-6c0.5-0.5,1.3-0.5,1.8,0c0.5,0.5,0.5,1.3,0,1.8
		l-6,6C126.2,71.3,125.9,71.5,125.5,71.5z"/>
	<path class="st3" d="M148.2,87h-8.4c-0.7,0-1.3-0.6-1.3-1.3s0.6-1.3,1.3-1.3h8.4c0.7,0,1.3,0.6,1.3,1.3S148.9,87,148.2,87z"/>
	<path class="st3" d="M131.5,108.5c-0.3,0-0.7-0.1-0.9-0.4l-6-6c-0.5-0.5-0.5-1.3,0-1.8c0.5-0.5,1.3-0.5,1.8,0l6,6
		c0.5,0.5,0.5,1.3,0,1.8C132.2,108.4,131.8,108.5,131.5,108.5z"/>
	<path class="st3" d="M110,124c-0.7,0-1.3-0.6-1.3-1.3v-8.4c0-0.7,0.6-1.3,1.3-1.3s1.3,0.6,1.3,1.3v8.4
		C111.3,123.4,110.7,124,110,124z"/>
	<path class="st3" d="M89.7,107.3c-0.3,0-0.6-0.1-0.8-0.3c-0.6-0.4-0.6-1.3-0.2-1.8l4.8-6c0.4-0.6,1.3-0.6,1.8-0.2
		c0.6,0.4,0.6,1.3,0.2,1.8l-4.8,6C90.5,107.1,90.1,107.3,89.7,107.3z"/>
	<path class="st3" d="M80.1,85.8h-8.4c-0.7,0-1.3-0.6-1.3-1.3s0.6-1.3,1.3-1.3h8.4c0.7,0,1.3,0.6,1.3,1.3S80.9,85.8,80.1,85.8z"/>
	<path class="st3" d="M95.7,71.5c-0.3,0-0.7-0.1-0.9-0.4l-6-6c-0.5-0.5-0.5-1.3,0-1.8c0.5-0.5,1.3-0.5,1.8,0l6,6
		c0.5,0.5,0.5,1.3,0,1.8C96.3,71.3,96,71.5,95.7,71.5z"/>
</g>
<g>
	<path class="st5" d="M158.3,315.2c-29.3-28.2-53.5-109.5-54.5-113l-0.1-0.4c-0.7-3.6,2-8.7,4.4-12.3l4.1-6.1l7.6,15.1l0.1,0.3
		c1.4,3.6,8.8,14.9,13.4,21.6l0.2,0.3c8.3,14.4,22.3,21.7,43.6,32.7c6.7,3.5,14.4,7.5,22.6,12.1c14.9,8.4,28.2,22.6,39.5,42.5
		c8.4,14.6,12.5,26.7,12.6,27.2l1,3l-2.6,1.8c-9.7,6.8-19.4,9.7-28.8,9.7C198.1,349.9,176.2,332.4,158.3,315.2z M195.5,273.2
		c-8.1-4.6-15.7-8.5-22.4-12c-21.7-11.3-37.4-19.5-47-35.9c-1.3-1.9-8.4-12.3-12.2-19.1c6.3,19.7,27.1,80.6,50.3,103
		c32.8,31.6,56.5,39.5,78.4,25.9C238.5,324.4,223,288.6,195.5,273.2z"/>
	<path class="st5" d="M103.7,199.5c4.5-35.4,25.7-69.5,63.2-101.3c29.4-25,59.9-41,71.3-47c0.9-0.5,1.7-0.9,2.3-1.2
		c13.2-7.1,25-1.7,30.9,3.2c6.7-1.7,11,0.3,13.6,2.3c6.8,5.6,8.6,18.5,5.5,39.4c-4.6,30.9-29.7,56.4-39,63.6
		c-6,4.7-10.7,23.7-12.3,34.6l-0.6,4.2l-10.2-1.5l-1-2c-0.8-1.6-1.5-3.1,3.9-19.9c0.5-1.6,5-15.5,7.1-18.6
		c1.9-2.9,15.1-21.2,18.2-25.5c1.1-8.3-0.5-15-4.5-19c-3.6-3.5-9.1-4.7-15.7-3.5c-13.7,2.6-48.1,24.2-75.7,41.5
		c-5.1,3.2-10,6.3-14.7,9.2c-28.8,17.9-33.8,42.3-33.8,42.6L103.7,199.5z M258,104.9c6.2,6,8.6,15.5,7,26.8
		c7.7-10.4,15-23.7,17.1-38.1c3.5-23.7-0.6-30-2.5-31.6c-1.6-1.3-4.3-1.4-7.8-0.1l-2.7,0.9l-1.9-2c-0.4-0.4-9.8-10.2-22.6-3.4
		c-0.6,0.3-1.4,0.8-2.3,1.2c-11.2,5.9-41.1,21.6-69.8,46c-23.4,19.9-40.2,40.6-50.2,61.9c5-5.3,11.3-10.6,19.2-15.6
		c4.6-2.9,9.6-6,14.6-9.2c29.7-18.7,63.4-39.8,78.7-42.7c2.2-0.4,4.3-0.6,6.3-0.6C247.8,98.5,253.7,100.7,258,104.9z"/>
	<g>
		<path class="st8" d="M212.6,281.2c0,0,26.2,25.1,34.7,56.1s34.2,34.2,40.6,31c6.4-3.2,19.2-7.5,23.5-47
			c4.3-39.5-9.6-76.8-38.5-106.8c-25.1-26.2-53.9-46.5-103.1-28.3c0,0-55-11.2-58.2,5.9c0,0,16.3,38.5,37.5,50.7
			C170.4,255,195.9,265.8,212.6,281.2z"/>
		<path class="st5" d="M268.5,370.4c-7-3.1-19.6-11.4-25.3-31.9c-8-29-32.6-53.2-33.5-54.1c-11.5-10.5-27.7-19.1-43.3-27.4
			c-6.4-3.4-13.1-6.9-19.3-10.5c-22.2-12.8-38.6-51.1-39.3-52.8l-0.5-1.2l0.2-1.3c0.6-3.3,2.6-6.1,5.6-8.2c13.3-9,48.5-2.8,56.4-1.3
			c50.9-18.3,81.3,3.5,106.5,29.8c30.3,31.6,44,69.7,39.6,110.2c-4.3,39.9-17.7,46.4-24.9,49.9c-0.3,0.2-0.6,0.3-0.9,0.5
			c-1.9,1-4.5,1.4-7.3,1.4C278.1,373.5,273.1,372.4,268.5,370.4z M171.3,190.1l-1.1,0.4l-1.2-0.2c-15.3-3.1-42.7-5.9-51.2-0.2
			c-0.9,0.6-1.4,1.2-1.6,1.7c3.1,6.9,17.6,37.2,35.1,47.3c6.1,3.5,12.6,7,19,10.3c16.2,8.5,32.9,17.4,45.2,28.7l0.1,0.1
			c1.1,1.1,27.1,26.3,35.9,58c4.5,16.3,13.6,23.3,20.5,26.4c6.6,3,12.4,2.7,14,1.9c0.3-0.2,0.7-0.3,1-0.5c6.1-3,16.3-7.9,20.1-43.1
			c4.1-37.9-8.8-73.7-37.3-103.4c-19.5-20.3-38.9-34-64.8-34C194.9,183.4,183.8,185.5,171.3,190.1z"/>
	</g>
	<g>
		<path class="st6" d="M259.6,113.7l-0.1,22.3c0,0,0,5.3-4.3,5.3s-5.3,0-5.3,0s-3.2-1.1-3.2-6.4s-1.1-29.9-1.1-29.9v-2.2
			C245.7,102.8,255.4,102.1,259.6,113.7z"/>
		<path class="st5" d="M249.1,143.8c-1.9-0.6-5-3.2-5-8.9c0-5.2-1.1-29.5-1.1-29.8l0-4.8l2.5-0.2c4.1-0.3,12.8,2,16.7,12.6l0.2,0.4
			l-0.1,22.7c0,3.2-1.8,8-6.9,8h-5.8L249.1,143.8z M248.4,105.8c0.2,4.6,1,24.3,1,29.1c0,2.4,0.8,3.4,1.2,3.7h4.6
			c1.5,0,1.6-2.4,1.6-2.7l0.1-21.8C254.7,108.4,250.9,106.4,248.4,105.8z"/>
	</g>
	<g>
		<path class="st6" d="M245.7,102.8l1.2,33.8c0,0-0.1,4.7-6.5,4.7c-6.4,0-28.8-4.3-28.8-4.3s-3.2,0-3.2-6.4c0-6.4,0-15.3,0-15.3
			S237.1,96.4,245.7,102.8z"/>
		<path class="st5" d="M211,139.6c-1.4-0.2-5.4-1.5-5.4-9v-16.8l1.2-0.8c5.1-3.3,30.9-19.5,40.4-12.4l1,0.8l1.2,35.1l0,0.1l0,0.1
			c-0.1,2.5-2.1,7.3-9.2,7.3C233.8,143.9,212.3,139.9,211,139.6z M243.1,104.5c-4.1-1.2-15.6,1.7-32.1,12.2v13.9
			c0,2.8,0.7,3.6,0.9,3.8l0.2,0c0.2,0,22.3,4.2,28.3,4.2c3.3,0,3.8-1.6,3.9-2L243.1,104.5z"/>
	</g>
	<g>
		<path class="st6" d="M208.4,132.1c0,0-0.1,3.8-7.5,3.8s-27.3,0-27.3,0l34.8-20.3L208.4,132.1z"/>
		<path class="st5" d="M210.9,111l0.1,21.1v0.1c0,0.3-0.2,6.4-10.2,6.4h-37.2L210.9,111z M205.6,120.3l-22.2,13h17.4
			c3.5,0,4.7-0.9,4.9-1.4L205.6,120.3z"/>
	</g>
	<path class="st5" d="M169,185.6c0,0,37.4,9.5,57,47.5c0,0-34.6-39.4-73-49.1L169,185.6z"/>
	<polygon class="st5" points="123.2,183.6 119.9,175.9 177.8,133.4 206,135 217.1,138 250,141.3 233.2,182.6 202.4,179.2 
		173.5,184.8 	"/>
	<path class="st5" d="M241.4,101.5c0,0-16-4-20.3-14.7c0,0,3.4,13.8,12.4,16L241.4,101.5z"/>
	<path class="st5" d="M258.5,108.2c0,0,6.4,1.1,11.7-6.4c0,0-3.2,9-11.7,9.3V108.2z"/>
	<path class="st5" d="M211.5,111.4c0,0-5.3,0-9.6-3.2C201.9,108.2,204,116.7,211.5,111.4z"/>
</g>
<g>
	<line class="st1" x1="311.8" y1="158.9" x2="311.8" y2="166.6"/>
	<line class="st1" x1="327.1" y1="159.8" x2="322" y2="164.9"/>
	<line class="st1" x1="320.3" y1="176" x2="328" y2="176"/>
	<line class="st1" x1="322" y1="184.6" x2="326.3" y2="190.5"/>
	<line class="st1" x1="311.8" y1="183.7" x2="311.8" y2="190.5"/>
	<line class="st1" x1="301.5" y1="185.4" x2="296.4" y2="190.5"/>
	<line class="st1" x1="303.2" y1="175.2" x2="296.4" y2="175.2"/>
	<line class="st1" x1="302.4" y1="164.1" x2="297.3" y2="159.8"/>
</g>
</svg>
