<?xml version="1.0" encoding="utf-8"?>
<!-- Generator: Adobe Illustrator 22.0.1, SVG Export Plug-In . SVG Version: 6.00 Build 0)  -->
<svg version="1.1" id="Capa_1" xmlns="http://www.w3.org/2000/svg" xmlns:xlink="http://www.w3.org/1999/xlink" x="0px" y="0px"
	 viewBox="0 0 420 420" style="enable-background:new 0 0 420 420;" xml:space="preserve">
<style type="text/css">
	.st0{fill:#ACD8FE;}
	.st1{fill:none;stroke:#4B5E64;stroke-width:2;stroke-linecap:round;stroke-linejoin:round;stroke-miterlimit:10;}
	.st2{fill:#FEF9D4;}
	.st3{fill:#4B5E64;}
	.st4{fill:none;stroke:#4B5E64;stroke-width:3;stroke-linecap:round;stroke-linejoin:round;stroke-miterlimit:10;}
	.st5{fill:#3D596D;}
	.st6{fill:#FFFFFF;}
	.st7{fill:#FDFDFD;}
	.st8{fill:#F5516A;}
</style>
<path class="st8" d="M294,104.5c0,0,22-1.5,22-22c0,0,1.5,20.5,19,22c0,0-16.1-1.5-19,19C316,123.5,314.5,104.5,294,104.5z"/>
<path class="st1" d="M298,100.5c0,0,22-1.5,22-22c0,0,1.5,20.5,19,22c0,0-16.1-1.5-19,19C320,119.5,318.5,100.5,298,100.5z"/>
<g>
	<g>
		<circle class="st0" cx="92.7" cy="191.8" r="15.3"/>
	</g>
	<g>
		<path class="st3" d="M88.5,173.9c8.3,0,15.1,6.8,15.1,15.1s-6.8,15.1-15.1,15.1s-15.1-6.8-15.1-15.1S80.2,173.9,88.5,173.9
			 M88.5,170.9c-10,0-18.1,8.1-18.1,18.1s8.1,18.1,18.1,18.1s18.1-8.1,18.1-18.1S98.5,170.9,88.5,170.9L88.5,170.9z"/>
	</g>
	<line class="st4" x1="88.5" y1="144.5" x2="88.5" y2="154.2"/>
	<line class="st4" x1="106.6" y1="172.3" x2="113.5" y2="165.4"/>
	<line class="st4" x1="123.3" y1="190.4" x2="133" y2="190.4"/>
	<line class="st4" x1="106.6" y1="208.5" x2="113.5" y2="215.4"/>
	<line class="st4" x1="88.5" y1="223.8" x2="88.5" y2="233.5"/>
	<line class="st4" x1="70.4" y1="207.1" x2="64.9" y2="214"/>
	<line class="st4" x1="53.7" y1="189" x2="44" y2="189"/>
	<line class="st4" x1="71.8" y1="172.3" x2="64.9" y2="165.4"/>
</g>
<g>
	<path class="st5" d="M198.5,349.9c-9.4,0-19.1-2.8-28.8-9.7l-2.6-1.8l1-3c0.2-0.5,4.2-12.6,12.6-27.2
		c11.4-19.8,24.7-34.1,39.5-42.5c8.3-4.6,15.9-8.6,22.6-12.1c21.3-11.1,35.3-18.4,43.6-32.7l0.2-0.3c4.6-6.7,12-18,13.4-21.6
		l0.1-0.3l7.6-15.1l4.1,6.1c2.4,3.6,5.1,8.6,4.4,12.3l-0.1,0.4c-1,3.4-25.2,84.7-54.5,113C243.8,332.4,221.9,349.9,198.5,349.9z
		 M177.4,335c21.9,13.6,45.6,5.6,78.4-25.9c23.2-22.3,44-83.2,50.3-103c-3.8,6.8-10.9,17.3-12.2,19.1c-9.6,16.4-25.3,24.6-47,35.9
		c-6.7,3.5-14.2,7.4-22.4,12C197,288.6,181.5,324.4,177.4,335z"/>
	<path class="st5" d="M307.9,200.8c0-0.2-5-24.7-33.8-42.6c-4.6-2.9-9.6-6-14.7-9.2c-27.6-17.4-62-38.9-75.7-41.5
		c-6.6-1.2-12.1,0-15.7,3.5c-4.1,3.9-5.6,10.6-4.5,19c3.1,4.2,16.2,22.5,18.2,25.5c2,3,6.5,17,7.1,18.6c5.4,16.8,4.7,18.3,3.9,19.9
		l-1,2l-10.2,1.5l-0.6-4.2c-1.6-10.9-6.3-30-12.3-34.6c-9.3-7.2-34.4-32.7-39-63.6c-3.1-20.9-1.3-33.8,5.5-39.4
		c2.5-2.1,6.8-4,13.6-2.3c5.9-5,17.7-10.3,30.9-3.2c0.6,0.3,1.4,0.7,2.3,1.2c11.5,6,42,22,71.3,47c37.4,31.9,58.7,66,63.2,101.3
		L307.9,200.8z M178.9,98.5c2,0,4.2,0.2,6.3,0.6c15.3,2.9,49,24,78.7,42.7c5.1,3.2,10,6.3,14.6,9.2c7.9,4.9,14.2,10.3,19.2,15.6
		c-10-21.2-26.7-42-50.2-61.9c-28.7-24.4-58.5-40.1-69.8-46c-0.9-0.5-1.7-0.9-2.3-1.2c-12.8-6.8-22.2,3-22.6,3.4l-1.9,2l-2.7-0.9
		c-3.6-1.3-6.2-1.2-7.8,0.1c-1.9,1.6-6,7.8-2.5,31.6c2.1,14.4,9.4,27.7,17.1,38.1c-1.7-11.3,0.8-20.9,7-26.8
		C166.3,100.7,172.2,98.5,178.9,98.5z"/>
	<g>
		<path class="st8" d="M207.4,281.2c0,0-26.2,25.1-34.7,56.1s-34.2,34.2-40.6,31c-6.4-3.2-19.2-7.5-23.5-47s9.6-76.8,38.5-106.8
			c25.1-26.2,53.9-46.5,103.1-28.3c0,0,55-11.2,58.2,5.9c0,0-16.3,38.5-37.5,50.7C249.6,255,224.1,265.8,207.4,281.2z"/>
		<path class="st5" d="M137.5,373.5c-2.9,0-5.4-0.5-7.3-1.4c-0.3-0.2-0.6-0.3-0.9-0.5c-7.2-3.5-20.6-10-24.9-49.9
			c-4.4-40.5,9.3-78.6,39.6-110.2c25.2-26.3,55.6-48.1,106.5-29.8c7.9-1.5,43.1-7.7,56.4,1.3c3.1,2.1,5,4.9,5.6,8.2l0.2,1.3
			l-0.5,1.2c-0.7,1.6-17.1,39.9-39.3,52.8c-6.2,3.6-12.8,7.1-19.3,10.5c-15.7,8.3-31.9,16.8-43.3,27.4c-0.9,0.9-25.5,25.1-33.5,54.1
			c-5.7,20.5-18.3,28.8-25.3,31.9C146.9,372.4,141.9,373.5,137.5,373.5z M215,183.4c-25.9,0-45.4,13.7-64.8,34
			c-28.5,29.7-41.4,65.5-37.3,103.4c3.8,35.2,14,40.2,20.1,43.1c0.4,0.2,0.7,0.3,1,0.5c1.6,0.8,7.4,1.1,14-1.9
			c6.9-3.1,16-10.1,20.5-26.4c8.8-31.7,34.8-57,35.9-58l0.1-0.1c12.3-11.3,29-20.1,45.2-28.7c6.4-3.4,12.9-6.8,19-10.3
			c17.5-10.1,32-40.3,35.1-47.3c-0.3-0.5-0.8-1.1-1.6-1.7c-8.5-5.7-35.9-2.9-51.2,0.2l-1.2,0.2l-1.1-0.4
			C236.2,185.5,225.1,183.4,215,183.4z"/>
	</g>
	<g>
		<path class="st6" d="M160.4,113.7l0.1,22.3c0,0,0,5.3,4.3,5.3c4.3,0,5.3,0,5.3,0s3.2-1.1,3.2-6.4s1.1-29.9,1.1-29.9v-2.2
			C174.3,102.8,164.6,102.1,160.4,113.7z"/>
		<path class="st5" d="M170.5,143.9h-5.8c-5.1,0-6.9-4.8-6.9-8l-0.1-22.7l0.2-0.4c3.9-10.7,12.6-12.9,16.7-12.6l2.5,0.2l0,4.8
			c0,0.2-1.1,24.6-1.1,29.8c0,5.7-3.2,8.3-5,8.9L170.5,143.9z M163,114.2l0.1,21.8c0,0.3,0.1,2.7,1.6,2.7h4.6
			c0.4-0.4,1.2-1.4,1.2-3.7c0-4.8,0.8-24.5,1-29.1C169.1,106.4,165.3,108.4,163,114.2z"/>
	</g>
	<g>
		<path class="st6" d="M174.3,102.8l-1.2,33.8c0,0,0.1,4.7,6.5,4.7c6.4,0,28.8-4.3,28.8-4.3s3.2,0,3.2-6.4c0-6.4,0-15.3,0-15.3
			S182.9,96.4,174.3,102.8z"/>
		<path class="st5" d="M179.7,143.9c-7.1,0-9.1-4.8-9.2-7.3l0-0.1l0-0.1l1.2-35.1l1-0.8c9.6-7.2,35.4,9,40.4,12.4l1.2,0.8v16.8
			c0,7.6-4,8.8-5.4,9C207.7,139.9,186.2,143.9,179.7,143.9z M175.8,136.6c0.1,0.5,0.5,2,3.9,2c6.1,0,28.1-4.2,28.3-4.2l0.2,0
			c0.2-0.2,0.9-1,0.9-3.8v-13.9c-16.5-10.6-28-13.4-32.1-12.2L175.8,136.6z"/>
	</g>
	<g>
		<path class="st6" d="M211.6,132.1c0,0,0.1,3.8,7.5,3.8s27.3,0,27.3,0l-34.8-20.3L211.6,132.1z"/>
		<path class="st5" d="M256.3,138.6h-37.2c-10,0-10.2-6.1-10.2-6.4v-0.1l0.1-21.1L256.3,138.6z M214.3,131.9
			c0.2,0.4,1.4,1.4,4.9,1.4h17.4l-22.2-13L214.3,131.9z"/>
	</g>
	<path class="st5" d="M251,185.6c0,0-37.4,9.5-57,47.5c0,0,34.6-39.4,73-49.1L251,185.6z"/>
	<polygon class="st5" points="296.8,183.6 300.1,175.9 242.2,133.4 214,135 202.9,138 170,141.3 186.8,182.6 217.6,179.2 
		246.5,184.8 	"/>
	<path class="st5" d="M178.6,101.5c0,0,16-4,20.3-14.7c0,0-3.4,13.8-12.4,16L178.6,101.5z"/>
	<path class="st5" d="M161.5,108.2c0,0-6.4,1.1-11.7-6.4c0,0,3.2,9,11.7,9.3V108.2z"/>
	<path class="st5" d="M208.5,111.4c0,0,5.3,0,9.6-3.2C218.1,108.2,216,116.7,208.5,111.4z"/>
</g>
<g>
	<line class="st1" x1="307.8" y1="307.9" x2="307.8" y2="315.6"/>
	<line class="st1" x1="323.1" y1="308.8" x2="318" y2="313.9"/>
	<line class="st1" x1="316.3" y1="325" x2="324" y2="325"/>
	<line class="st1" x1="318" y1="333.6" x2="322.3" y2="339.5"/>
	<line class="st1" x1="307.8" y1="332.7" x2="307.8" y2="339.5"/>
	<line class="st1" x1="297.5" y1="334.4" x2="292.4" y2="339.5"/>
	<line class="st1" x1="299.2" y1="324.2" x2="292.4" y2="324.2"/>
	<line class="st1" x1="298.4" y1="313.1" x2="293.3" y2="308.8"/>
</g>
</svg>
