<?xml version="1.0" encoding="iso-8859-1"?>
<!-- Generator: Adobe Illustrator 16.0.0, SVG Export Plug-In . SVG Version: 6.00 Build 0)  -->
<!DOCTYPE svg PUBLIC "-//W3C//DTD SVG 1.1//EN" "http://www.w3.org/Graphics/SVG/1.1/DTD/svg11.dtd">
<svg xmlns="http://www.w3.org/2000/svg" xmlns:xlink="http://www.w3.org/1999/xlink" version="1.1" id="Capa_1" x="0px" y="0px" width="512px" height="512px" viewBox="0 0 486.836 486.837" style="enable-background:new 0 0 486.836 486.837;" xml:space="preserve">
<g>
	<g id="Layer_2_19_">
		<g>
			<path d="M298.965,248.618c12.6,0,22.807-9.653,22.807-21.519c0-11.874-10.207-21.516-22.807-21.516     c-12.584,0-22.773,9.642-22.773,21.516C276.192,238.965,286.367,248.618,298.965,248.618z M294.309,218.728     c6.459,0,11.684,4.944,11.684,11.026c-0.014,6.108-5.225,11.058-11.684,11.058s-11.689-4.949-11.689-11.058     C282.619,223.673,287.85,218.728,294.309,218.728z" fill="#28e8bd"/>
			<path d="M106.273,269.689c12.755,21.239,31.443,40.533,53.164,54.782c25.59,16.787,53.864,25.742,81.84,25.968v0.008     c0.048,0,0.095-0.003,0.141-0.004c0.047,0.001,0.095,0.004,0.142,0.004v-0.008c27.975-0.226,56.249-9.181,81.839-25.968     c21.723-14.249,40.408-33.543,53.164-54.782c15.863-0.726,24.736-8.105,29.443-14.349c6.189-8.21,9.326-19.732,9.326-34.249     c0-25.104-9.062-42.342-25.705-49.397c2.336-14.279,2.33-30.972-1.789-50.791c-2.658-12.793-10.154-22.962-20.34-31.528     c-37.854-31.836-111.32-32.032-114.746-78.012c-0.744-8.421-5.945-12.878-18.575-10.897     c-74.31,11.657-108.994,48.544-127.839,88.712c-4.281,7.329-8.719,19.1-11.343,31.726c-4.118,19.819-4.124,36.512-1.788,50.791     c-16.643,7.056-25.704,24.293-25.704,49.397c0,14.517,3.138,26.039,9.326,34.249C81.536,261.584,90.409,268.965,106.273,269.689z      M104.675,188.724c11.748-2.273,9.141-21.584,24.453-31.215c19.47-12.246,62.079,26.595,112.045,26.595     c49.966,0,93.992-40.205,112.533-26.595c9.748,7.154,13.691,28.155,24.455,31.215c10.762,3.06,17.361,13.564,17.361,32.368     c0,25.419-10.887,28.848-21.535,28.848c-0.641,0-1.396-0.062-2.309-0.136l-6.404-0.515l-3.078,5.641     c-19.807,36.264-65.979,75.269-120.779,75.713c-54.8-0.444-100.972-39.449-120.777-75.713l-3.08-5.641l-6.403,0.515     c-0.911,0.073-1.669,0.136-2.308,0.136c-10.649,0-21.537-3.429-21.537-28.848C87.312,202.289,92.927,190.998,104.675,188.724z" fill="#28e8bd"/>
			<path d="M183.868,248.618c12.6,0,22.775-9.653,22.775-21.519c0-11.874-10.189-21.516-22.775-21.516     c-12.599,0-22.806,9.642-22.806,21.516C161.063,238.965,171.27,248.618,183.868,248.618z M188.526,218.728     c6.46,0,11.69,4.944,11.69,11.026c0,6.108-5.23,11.058-11.69,11.058c-6.459,0-11.67-4.949-11.684-11.058     C176.842,223.673,182.067,218.728,188.526,218.728z" fill="#28e8bd"/>
			<path d="M334.958,341.029c-8.137,0.058-13.871,3.442-16.375,4.695c-1.9,0.95-53.723,30.909-64.543,37.396     c-4.418,2.648-7.816,3.636-10.62,3.724c-2.806-0.088-6.203-1.074-10.621-3.724c-10.822-6.486-62.645-36.445-64.545-37.396     c-2.502-1.253-8.235-4.64-16.374-4.695c-38.816,0.151-84.68,34.021-84.68,76.266v69.542h176.22h176.217v-69.542     C419.637,375.05,373.774,341.181,334.958,341.029z M230.398,464.405H89.632v-47.11c0-26.972,31.199-51.114,57.809-53.607     c-2.5,17.462-8.091,42.022-8.475,43.697c-0.005,0.022-0.01,0.042-0.015,0.064c-0.002,0.01-0.008,0.033-0.008,0.033l0.002,0.004     c-0.115,0.584-0.179,1.188-0.179,1.807c0,5.042,4.045,9.134,9.067,9.222c0.289,0.034,0.578,0.043,0.871,0.01     c17.305-2.055,53.526-11.964,73.517-15.554l8.176,4.737L230.398,464.405L230.398,464.405z M397.208,464.405H256.44v-56.697     l8.176-4.738c19.99,3.591,56.213,13.499,73.516,15.555c0.295,0.033,0.584,0.024,0.873-0.01c5.021-0.088,9.068-4.18,9.068-9.222     c0-0.619-0.064-1.223-0.18-1.807l0.002-0.004c0,0-0.006-0.023-0.01-0.033c-0.004-0.022-0.01-0.042-0.014-0.064     c-0.383-1.675-5.977-26.235-8.475-43.697c26.607,2.493,57.811,26.637,57.811,53.607V464.405L397.208,464.405z" fill="#28e8bd"/>
			<path d="M376.829,441.481c0,3.591-2.854,6.502-6.365,6.502h-64.125c-3.518,0-6.367-2.911-6.367-6.502v-3.254     c0-3.593,2.852-6.502,6.367-6.502h64.125c3.514,0,6.365,2.909,6.365,6.502V441.481z" fill="#28e8bd"/>
		</g>
	</g>
</g>
<g>
</g>
<g>
</g>
<g>
</g>
<g>
</g>
<g>
</g>
<g>
</g>
<g>
</g>
<g>
</g>
<g>
</g>
<g>
</g>
<g>
</g>
<g>
</g>
<g>
</g>
<g>
</g>
<g>
</g>
</svg>
