<?xml version="1.0" encoding="utf-8"?>
<!-- Generator: Adobe Illustrator 22.0.1, SVG Export Plug-In . SVG Version: 6.00 Build 0)  -->
<svg version="1.1" id="Capa_1" xmlns="http://www.w3.org/2000/svg" xmlns:xlink="http://www.w3.org/1999/xlink" x="0px" y="0px"
	 viewBox="0 0 420 420" style="enable-background:new 0 0 420 420;" xml:space="preserve">
<style type="text/css">
	.st0{fill:#ACD8FE;}
	.st1{fill:none;stroke:#4B5E64;stroke-width:2;stroke-linecap:round;stroke-linejoin:round;stroke-miterlimit:10;}
	.st2{fill:#FEF9D4;}
	.st3{fill:#4B5E64;}
	.st4{fill:none;stroke:#4B5E64;stroke-width:3;stroke-linecap:round;stroke-linejoin:round;stroke-miterlimit:10;}
	.st5{fill:#3D596D;}
	.st6{fill:#FFFFFF;}
	.st7{fill:#FDFDFD;}
	.st8{fill:#F5516A;}
</style>
<g>
	<path class="st0" d="M39.1,66.7c0,0,28.5-1.9,28.5-28.5c0,0,1.9,26.6,24.7,28.5c0,0-20.9-1.9-24.7,24.7
		C67.6,91.4,65.7,66.7,39.1,66.7z"/>
	<path class="st1" d="M36.1,63.9c0,0,27.4-1.8,27.4-27.4c0,0,1.8,25.6,23.8,27.4c0,0-20.1-1.8-23.8,23.8
		C63.6,87.7,61.7,63.9,36.1,63.9z"/>
	<g>
		<g>
			<circle class="st2" cx="345" cy="343.3" r="14.7"/>
		</g>
		<g>
			<path class="st3" d="M341,326.2c8,0,14.4,6.5,14.4,14.4c0,8-6.5,14.4-14.4,14.4c-8,0-14.4-6.5-14.4-14.4
				C326.6,332.7,333,326.2,341,326.2 M341,323.2c-9.6,0-17.4,7.8-17.4,17.4S331.4,358,341,358c9.6,0,17.4-7.8,17.4-17.4
				S350.6,323.2,341,323.2L341,323.2z"/>
		</g>
		<line class="st4" x1="341" y1="297.8" x2="341" y2="307.1"/>
		<line class="st4" x1="358.4" y1="324.5" x2="365.1" y2="317.8"/>
		<line class="st4" x1="374.5" y1="342" x2="383.9" y2="342"/>
		<line class="st4" x1="358.4" y1="359.4" x2="365.1" y2="366.1"/>
		<line class="st4" x1="341" y1="374.1" x2="341" y2="383.5"/>
		<line class="st4" x1="323.6" y1="358" x2="318.2" y2="364.7"/>
		<line class="st4" x1="307.5" y1="340.6" x2="298.1" y2="340.6"/>
		<line class="st4" x1="324.9" y1="324.5" x2="318.2" y2="317.8"/>
	</g>
	<g>
		<line class="st1" x1="341.1" y1="71.9" x2="341.1" y2="80.3"/>
		<line class="st1" x1="357.8" y1="72.9" x2="352.2" y2="78.4"/>
		<line class="st1" x1="350.4" y1="90.5" x2="358.7" y2="90.5"/>
		<line class="st1" x1="352.2" y1="99.8" x2="356.9" y2="106.2"/>
		<line class="st1" x1="341.1" y1="98.8" x2="341.1" y2="106.2"/>
		<line class="st1" x1="330" y1="100.7" x2="324.4" y2="106.2"/>
		<line class="st1" x1="331.8" y1="89.6" x2="324.4" y2="89.6"/>
		<line class="st1" x1="330.9" y1="77.5" x2="325.3" y2="72.9"/>
	</g>
	<g>
		<g>
			<path class="st5" d="M202.1,328.6c-42.2,0-75.2-12.8-97.9-38c-41-45.3-34.6-114-34.3-116.9c0-0.2,0.1-0.4,0.1-0.5
				c1.3-5.1,33.4-124.8,96.4-124.8c13.1,0,30.9,6.4,35.8,8.4c5-1.9,22.7-8.4,35.8-8.4c63,0,95,119.7,96.4,124.8
				c0,0.2,0.1,0.4,0.1,0.5c0.3,2.9,6.7,71.5-34.3,116.9C277.2,315.8,244.3,328.6,202.1,328.6z M76.7,174.7
				c-0.4,4.7-5.1,69.6,32.6,111.3c21.4,23.7,52.6,35.7,92.7,35.7c40.1,0,71.3-12,92.8-35.7c37.7-41.7,33-106.5,32.6-111.2
				c-1.7-6.4-33.3-119.3-89.5-119.3c-13.7,0-34.3,8.3-34.5,8.4c-0.8,0.3-1.8,0.3-2.6,0c-0.2-0.1-20.8-8.4-34.5-8.4
				C110,55.3,78.5,168.3,76.7,174.7z"/>
		</g>
		<path class="st6" d="M207.6,74.2c0,0,1.6-1,4.6-2.5c3-1.5,7.4-3.4,12.9-5.2c2.8-0.9,5.8-1.8,9.2-2.3c0.9-0.1,1.7-0.3,2.6-0.3
			l0.7-0.1l0.2,0l0.4,0l0.3,0l1.3,0c0.9,0,1.7,0.1,2.6,0.1c0.9,0.1,1.9,0.3,2.9,0.5c2.1,0.3,3.9,0.9,5.8,1.6
			c1.9,0.5,3.6,1.6,5.4,2.5c1.8,0.9,3.4,2.1,5.1,3.2c1.6,1.2,3.2,2.4,4.7,3.7c1.4,1.4,2.9,2.7,4.3,4.1c1.3,1.4,2.6,2.9,3.9,4.3
			c2.5,2.9,4.7,6,6.8,9c2,3,3.8,6,5.4,8.9c1.7,2.8,3,5.7,4.3,8.2c2.4,5.2,4.2,9.6,5.3,12.8c1.1,3.2,1.6,5,1.6,5s-4.2-6.3-10.4-15.8
			c-1.6-2.3-3.3-4.8-5.2-7.4c-1.8-2.6-3.9-5.3-6-8c-1.1-1.3-2.2-2.7-3.3-4.1c-1.2-1.3-2.4-2.7-3.5-4c-1.2-1.3-2.5-2.6-3.7-3.9
			l-4-3.7c-1.4-1.1-2.8-2.3-4.1-3.4c-1.5-0.9-2.9-2-4.4-2.9c-3-1.6-6.1-3.3-9-3.9c-0.8-0.2-1.4-0.4-2.2-0.6
			c-0.9-0.1-1.7-0.2-2.6-0.3l-1.3-0.2l-0.3,0c0,0-0.3,0,0.1,0l-0.1,0l-0.6,0c-0.7,0-1.5,0-2.3,0c-3.1,0.2-6,0.6-8.8,1
			c-5.5,0.9-10.1,1.9-13.4,2.6C209.5,73.8,207.6,74.2,207.6,74.2z"/>
		<g>
			<path class="st5" d="M202.1,112.9c5.6,0,12.6-1.2,19.2-2.7c12.6-2.8,25.7,1.6,33.9,11.5c8.1,9.8,20.1,22.2,36,32.8
				c16.4,10.9,28.3,19.4,32.5,23.9c-24.2,55.4-78,89.5-121.7,89.5s-97.5-34.1-121.7-89.5c4.2-4.5,16.1-13.1,32.5-23.9
				c16-10.6,28-22.9,36-32.8c8.2-10,21.3-14.4,33.9-11.5C189.4,111.7,196.4,112.9,202.1,112.9z"/>
			<path class="st5" d="M202.1,271.5c-42.2,0-98.6-31.5-124.9-91.6c-0.6-1.3-0.3-2.8,0.6-3.8c4.1-4.4,14.9-12.5,33.1-24.5
				c16.2-10.7,28.1-23.3,35.3-32.1c7.1-8.7,17.7-13.7,29.1-13.7c2.8,0,5.6,0.3,8.3,0.9c7.6,1.7,13.8,2.6,18.5,2.6
				c4.6,0,10.9-0.9,18.5-2.6c2.7-0.6,5.5-0.9,8.3-0.9c11.3,0,21.9,5,29.1,13.7c7.2,8.7,19.1,21.4,35.3,32.1c18.2,12,29,20,33.1,24.5
				c0.9,1,1.2,2.5,0.6,3.8C300.7,240,244.2,271.5,202.1,271.5z M84.6,179.3c25.2,55.4,79.1,85.2,117.5,85.2
				c38.4,0,92.3-29.9,117.5-85.2c-4.7-4.3-14.9-11.6-30.2-21.8c-16.9-11.2-29.4-24.4-36.8-33.4c-5.8-7-14.4-11.1-23.6-11.1
				c-2.3,0-4.6,0.3-6.8,0.8c-8.1,1.8-14.8,2.7-20,2.7c-5.2,0-11.9-0.9-20-2.7c-2.2-0.5-4.5-0.8-6.8-0.8c-9.2,0-17.8,4-23.6,11.1
				c-10.9,13.2-23.3,24.5-36.8,33.4C99.4,167.6,89.3,174.9,84.6,179.3z"/>
		</g>
		<g>
			<g>
				<path class="st7" d="M202.1,143.4c0-5.1,0-21.5,0-30.5c-6.4,0-14.7-1.5-22.1-3.3c-7.1-1.7-14.5-0.6-20.7,2.8
					c0,11.3,0.1,25.5,0.1,30.8C159.4,149.6,202.1,149.2,202.1,143.4z"/>
				<path class="st5" d="M180.5,151.4C180.5,151.4,180.5,151.4,180.5,151.4c-24.6,0-24.6-6.2-24.6-8.2c0-5.2,0-19.4-0.1-30.8
					c0-1.3,0.7-2.5,1.8-3.1c7-3.9,15.4-5,23.2-3.2c8.9,2.1,16.1,3.2,21.3,3.2c1.9,0,3.5,1.6,3.5,3.5v30.5c0,5-7,6.3-9.6,6.8
					C191.8,151,186.3,151.4,180.5,151.4z M162.9,142.2c1.7,0.9,7.3,2.2,17.6,2.2c0,0,0,0,0,0c9.5,0,16-1.2,18.1-2.1v-26
					c-5.3-0.4-11.8-1.5-19.4-3.3c-5.4-1.3-11.2-0.7-16.3,1.6C162.8,124.8,162.9,136.7,162.9,142.2z"/>
			</g>
			<g>
				<path class="st7" d="M159.2,142.6c0-4.6,0-18.8,0-30.2c-3.2,1.8-6.2,4.2-8.6,7.2c-6.1,7.7-14.9,17.3-26.3,26.5
					C135.9,148.4,159.2,146.9,159.2,142.6z"/>
				<path class="st5" d="M137.8,150.7L137.8,150.7c-5.4,0-10.4-0.4-14.1-1.2c-1.3-0.3-2.4-1.3-2.7-2.6c-0.3-1.3,0.2-2.7,1.2-3.6
					c9.4-7.6,18.1-16.3,25.7-25.9c2.6-3.3,5.8-6,9.6-8.1c1.1-0.6,2.4-0.6,3.5,0c1.1,0.6,1.7,1.8,1.7,3v30.2c0,5-7,6.3-9.6,6.9
					C149,150.2,143.5,150.7,137.8,150.7z M132.8,143.5c1.6,0.1,3.3,0.1,5,0.1c9.1,0,15.7-1.2,17.9-2.2v-22.2
					c-0.8,0.8-1.6,1.6-2.3,2.5C147.2,129.7,140.3,137,132.8,143.5z"/>
			</g>
			<g>
				<path class="st7" d="M244.8,143.2c0-5.2,0-19.4,0.1-30.8c-6.2-3.4-13.5-4.5-20.7-2.8c-7.4,1.8-15.7,3.3-22.1,3.3c0,0,0,0,0,0
					c0,9,0,25.4,0,30.5C202.1,149.2,244.8,149.6,244.8,143.2z"/>
				<path class="st5" d="M223.7,151.4C223.7,151.4,223.7,151.4,223.7,151.4c-25.1,0-25.1-6-25.1-8v-30.5c0-1.9,1.6-3.5,3.5-3.5
					c5.2,0,12.4-1.1,21.3-3.2c7.7-1.9,16.1-0.7,23.2,3.2c1.1,0.6,1.8,1.8,1.8,3.1c0,11.3-0.1,25.5-0.1,30.8c0,5.1-7.1,6.5-9.4,7
					C234.9,151,229.5,151.4,223.7,151.4z M205.6,142.3c2.1,1,8.6,2.1,18.1,2.1c10.3,0,15.9-1.3,17.6-2.2c0-5.5,0-17.4,0.1-27.6
					c-5.1-2.3-10.9-2.9-16.3-1.6c-7.6,1.8-14.2,2.9-19.4,3.3V142.3z"/>
			</g>
			<g>
				<path class="st7" d="M279.7,146.1c-11.4-9.2-20.2-18.8-26.3-26.5c-2.4-3-5.3-5.4-8.6-7.2c0,11.4,0,25.5,0,30.2
					C244.9,146.9,268.2,148.4,279.7,146.1z"/>
				<path class="st5" d="M266.3,150.7L266.3,150.7c-16.5,0-24.9-2.7-24.9-8.1v-30.2c0-1.2,0.7-2.4,1.7-3c1.1-0.6,2.4-0.6,3.5,0
					c3.8,2.1,7,4.8,9.6,8.1c7.7,9.6,16.3,18.4,25.7,25.9c1.1,0.9,1.5,2.2,1.2,3.6c-0.3,1.3-1.4,2.3-2.7,2.6
					C276.7,150.3,271.7,150.7,266.3,150.7z M248.4,141.5c2.2,1,8.8,2.2,17.9,2.2l0,0c1.7,0,3.4,0,5-0.1
					c-7.4-6.6-14.3-13.9-20.6-21.8c-0.7-0.9-1.5-1.7-2.3-2.5V141.5z"/>
			</g>
		</g>
		<g>
			<path class="st8" d="M275.1,173.9c-32.5-20.6-73,4.6-73,4.6s-40.5-25.2-73-4.6c-32.5,20.6-31.4,44-23.9,99.6
				c10.6,79,65.7,97.5,96.9,97.5s86.3-18.5,96.9-97.5C306.4,218,307.6,194.5,275.1,173.9z"/>
			<path class="st5" d="M202.1,374.5c-40.1,0-90.4-26.3-100.3-100.5c-7.5-55.5-9.3-81,25.5-103c9-5.7,19.5-8.6,31-8.6
				c20.4,0,38.2,9,43.9,12.2c5.7-3.2,23.5-12.2,43.9-12.2c11.5,0,21.9,2.9,31,8.6c34.8,22,33,47.5,25.5,103
				C292.4,348.2,242.1,374.5,202.1,374.5z M158.2,169.4c-10.2,0-19.3,2.5-27.2,7.5c-29.9,18.9-30,39-22.3,96.2
				c9.4,69.7,56.2,94.4,93.4,94.4c37.2,0,84-24.7,93.4-94.4c7.7-57.2,7.7-77.2-22.3-96.2c-7.9-5-17.1-7.5-27.2-7.5
				c-22.2,0-41.9,12.1-42.1,12.2c-1.1,0.7-2.6,0.7-3.7,0C200,181.4,180.3,169.4,158.2,169.4z"/>
		</g>
		<path class="st5" d="M205.6,178.6l-3.5,133.5l-3.5-133.5c-0.1-1.9,1.5-3.5,3.4-3.6c1.9-0.1,3.5,1.5,3.6,3.4
			C205.6,178.5,205.6,178.5,205.6,178.6z"/>
		<path class="st5" d="M147,89.5c0,0,1.6,1.9,4.4,4.2c2.9,2.3,6.9,4.9,11.3,6.9c4.3,2,8.9,3.5,12.3,4.3c1.7,0.5,3.2,0.7,4.2,0.9
			c1,0.2,1.6,0.3,1.6,0.3l0.2,0c1.9,0.4,3.1,2.2,2.8,4.2c-0.4,1.9-2.2,3.1-4.2,2.8c-0.2,0-0.4-0.1-0.6-0.2c0,0-0.6-0.2-1.6-0.6
			c-1-0.4-2.5-1-4.3-1.8c-3.5-1.5-8-4-12.1-6.9c-4.1-2.9-7.8-6.3-10.3-9.1C148.2,91.7,147,89.5,147,89.5z"/>
		<path class="st5" d="M119.4,120.9c0,0,1.6,0.8,4.1,1.6c2.5,0.8,6,1.4,9.4,1.2c1.7,0,3.3-0.3,4.8-0.6c0.8-0.1,1.5-0.4,2.1-0.6
			c0.7-0.2,1.3-0.4,1.8-0.7c1.1-0.4,2-0.9,2.6-1.2c0.6-0.3,1-0.5,1-0.5l0.2-0.1c1.7-0.9,3.9-0.2,4.8,1.5c0.9,1.7,0.2,3.9-1.5,4.8
			c-0.3,0.1-0.5,0.2-0.8,0.3c0,0-0.5,0.1-1.3,0.3c-0.8,0.2-2,0.5-3.5,0.7c-0.7,0.1-1.5,0.2-2.4,0.2c-0.8,0-1.7,0.1-2.6,0
			c-1.8-0.1-3.7-0.3-5.6-0.7c-3.7-0.8-7.1-2.3-9.4-3.7C120.7,122.1,119.4,120.9,119.4,120.9z"/>
		<path class="st5" d="M257.1,89.5c0,0-1.2,2.1-3.7,5c-2.5,2.8-6.1,6.2-10.3,9.1c-4.1,2.9-8.6,5.3-12.1,6.9
			c-1.7,0.8-3.2,1.4-4.3,1.8c-1,0.4-1.6,0.6-1.6,0.6c-1.8,0.7-3.9-0.2-4.6-2c-0.7-1.8,0.2-3.9,2-4.6c0.2-0.1,0.4-0.1,0.6-0.2l0.2,0
			c0,0,0.6-0.1,1.6-0.3c1-0.2,2.5-0.5,4.2-0.9c3.5-0.8,8-2.3,12.3-4.3c4.4-2,8.4-4.6,11.3-6.9C255.5,91.4,257.1,89.5,257.1,89.5z"/>
		<path class="st5" d="M284.7,120.9c0,0-1.3,1.2-3.7,2.6c-2.3,1.4-5.7,2.9-9.4,3.7c-1.8,0.4-3.8,0.6-5.6,0.7c-0.9,0.1-1.8,0-2.6,0
			c-0.8,0-1.6-0.1-2.4-0.2c-1.5-0.2-2.7-0.5-3.5-0.7c-0.8-0.2-1.3-0.3-1.3-0.3c-1.9-0.5-3.1-2.4-2.6-4.3c0.5-1.9,2.4-3.1,4.3-2.6
			c0.3,0.1,0.5,0.2,0.8,0.3l0.2,0.1c0,0,0.3,0.2,1,0.5c0.6,0.3,1.5,0.8,2.6,1.2c0.6,0.2,1.2,0.5,1.8,0.7c0.7,0.2,1.4,0.5,2.1,0.6
			c1.5,0.3,3.2,0.6,4.8,0.6c3.4,0.1,6.8-0.5,9.4-1.2C283.1,121.7,284.7,120.9,284.7,120.9z"/>
	</g>
</g>
</svg>
